<?xml version="1.0" encoding="UTF-8"?>
<svg xmlns="http://www.w3.org/2000/svg" viewBox="60 68 256 256" role="img" aria-label="Revlient"><defs><clipPath id="clippath0" transform="matrix(0.23999999 0 0 -0.23999999 0 383.03998)"><path d="M 0 0 L 1562.5 0 L 1562.5 1562.5 L 0 1562.5 Z" fill="none" clip-rule="evenodd"/></clipPath><clipPath id="clippath1" transform="matrix(0.23999999 0 0 -0.23999999 0 383.03998)"><path d="M 0 0 L 1562.5 0 L 1562.5 1562.5 L 0 1562.5 Z" fill="none" clip-rule="evenodd"/></clipPath><clipPath id="clippath2" transform="matrix(0.23999999 0 0 -0.23999999 0 383.03998)"><path d="M 0 0 L 1562.5 0 L 1562.5 1562.5 L 0 1562.5 Z" fill="none" clip-rule="nonzero"/></clipPath><clipPath id="clippath3" transform="matrix(0.23999999 0 0 -0.23999999 0 383.03998)" clip-path="url(#clippath2)"><path d="M 0 0 L 1562.5 0 L 1562.5 1562.5 L 0 1562.5 Z" fill="none" clip-rule="nonzero"/></clipPath><clipPath id="clippath4" transform="matrix(0.23999999 0 0 -0.23999999 0 383.03998)" clip-path="url(#clippath3)"><path d="M 704.72375 1263.79846 L 394.88489 899.58264 L 550.02502 767.60474 L 859.86389 1131.82056 L 704.72375 1263.79846 Z" fill="none" clip-rule="nonzero"/></clipPath><clipPath id="clippath5" transform="matrix(0.23999999 0 0 -0.23999999 0 383.03998)" clip-path="url(#clippath4)"><path d="M 473.13281 991.56311 L 626.93658 1172.35962 L 782.29382 1197.80945 L 782.07678 1040.38159 L 628.27295 859.58521 L 472.91571 834.13531 L 473.13281 991.56311 Z" fill="none" clip-rule="nonzero"/></clipPath><clipPath id="clippath6" transform="matrix(0.23999999 0 0 -0.23999999 0 383.03998)"><path d="M 0 0 L 1562.5 0 L 1562.5 1562.5 L 0 1562.5 Z" fill="none" clip-rule="nonzero"/></clipPath><clipPath id="clippath7" transform="matrix(0.23999999 0 0 -0.23999999 0 383.03998)" clip-path="url(#clippath6)"><path d="M 0 0 L 1562.5 0 L 1562.5 1562.5 L 0 1562.5 Z" fill="none" clip-rule="nonzero"/></clipPath><clipPath id="clippath8" transform="matrix(0.23999999 0 0 -0.23999999 0 383.03998)" clip-path="url(#clippath7)"><path d="M 704.72375 950.65948 L 394.88489 586.44373 L 550.02502 454.46576 L 859.86389 818.68152 L 704.72375 950.65948 Z" fill="none" clip-rule="nonzero"/></clipPath><clipPath id="clippath9" transform="matrix(0.23999999 0 0 -0.23999999 0 383.03998)" clip-path="url(#clippath8)"><path d="M 473.13281 678.42419 L 626.93658 859.22064 L 782.29382 884.67053 L 782.07678 727.24268 L 628.27295 546.44623 L 472.91571 520.99634 L 473.13281 678.42419 Z" fill="none" clip-rule="nonzero"/></clipPath><clipPath id="clippath10" transform="matrix(0.23999999 0 0 -0.23999999 0 383.03998)"><path d="M 0 0 L 1562.5 0 L 1562.5 1562.5 L 0 1562.5 Z" fill="none" clip-rule="nonzero"/></clipPath><clipPath id="clippath11" transform="matrix(0.23999999 0 0 -0.23999999 0 383.03998)" clip-path="url(#clippath10)"><path d="M 0 0 L 1562.5 0 L 1562.5 1562.5 L 0 1562.5 Z" fill="none" clip-rule="nonzero"/></clipPath><clipPath id="clippath12" transform="matrix(0.23999999 0 0 -0.23999999 0 383.03998)" clip-path="url(#clippath11)"><path d="M 1167.11365 430.89151 L 857.73071 793.40527 L 702.79999 661.18152 L 1012.18286 298.66779 L 1167.11365 430.89151 Z" fill="none" clip-rule="nonzero"/></clipPath><clipPath id="clippath13" transform="matrix(0.23999999 0 0 -0.23999999 0 383.03998)" clip-path="url(#clippath12)"><path d="M 935.97864 701.71973 L 1089.18164 522.20691 L 1089.64832 364.77963 L 934.25085 389.98322 L 781.04791 569.49597 L 780.58124 726.92328 L 935.97864 701.71973 Z" fill="none" clip-rule="nonzero"/></clipPath><clipPath id="clippath14" transform="matrix(0.23999999 0 0 -0.23999999 0 383.03998)"><path d="M 0 0 L 1562.5 0 L 1562.5 1562.5 L 0 1562.5 Z" fill="none" clip-rule="nonzero"/></clipPath><clipPath id="clippath15" transform="matrix(0.23999999 0 0 -0.23999999 0 383.03998)" clip-path="url(#clippath14)"><path d="M 0 0 L 1562.5 0 L 1562.5 1562.5 L 0 1562.5 Z" fill="none" clip-rule="nonzero"/></clipPath><clipPath id="clippath16" transform="matrix(0.23999999 0 0 -0.23999999 0 383.03998)" clip-path="url(#clippath15)"><path d="M 1165.16455 739.13757 L 861.6499 1106.57849 L 704.61334 976.86273 L 1008.12805 609.42175 L 1165.16455 739.13757 Z" fill="none" clip-rule="nonzero"/></clipPath><clipPath id="clippath17" transform="matrix(0.23999999 0 0 -0.23999999 0 383.03998)" clip-path="url(#clippath16)"><path d="M 938.57788 1013.44788 L 1088.71069 831.69415 L 1086.64624 674.27966 L 931.67419 701.97833 L 781.54138 883.73212 L 783.60577 1041.14648 L 938.57788 1013.44788 Z" fill="none" clip-rule="nonzero"/></clipPath></defs><g transform="matrix(1 0 0 -1 0 383.03998)"><g transform="matrix(0.23999999 0 0 -0.23999999 0 383.03998)"><path d="M 0 0 L 1562.5 0 L 1562.5 1562.5 L 0 1562.5 Z" fill="none"/></g><g clip-path="url(#clippath0)"><g transform="matrix(0.7499999687 0 0 -0.7499999687 0 383.03998)"/></g><g transform="matrix(0.23999999 0 0 -0.23999999 0 383.03998)"><path d="M 0 0 L 1562.5 0 L 1562.5 1562.5 L 0 1562.5 Z" fill="none"/></g><g clip-path="url(#clippath1)"><g transform="matrix(0.7499999687 0 0 -0.7499999687 0 383.03998)"/></g><g transform="matrix(0.23999999 0 0 -0.23999999 0 383.03998)"><path d="M 0 0 L 1562.5 0 L 1562.5 1562.5 L 0 1562.5 Z" fill="none"/></g><g clip-path="url(#clippath2)"><g transform="matrix(0.23999999 0 0 -0.23999999 0 383.03998)"><path d="M 0 0 L 1562.5 0 L 1562.5 1562.5 L 0 1562.5 Z" fill="none"/></g></g><g clip-path="url(#clippath3)"><g transform="matrix(0.23999999 0 0 -0.23999999 0 383.03998)"><path d="M 704.72375 1263.79846 L 394.88489 899.58264 L 550.02502 767.60474 L 859.86389 1131.82056 L 704.72375 1263.79846 Z" fill="none"/></g></g><g clip-path="url(#clippath4)"><g transform="matrix(0.23999999 0 0 -0.23999999 0 383.03998)"><path d="M 473.13281 991.56311 L 626.93658 1172.35962 L 782.29382 1197.80945 L 782.07678 1040.38159 L 628.27295 859.58521 L 472.91571 834.13531 L 473.13281 991.56311 Z" fill="none"/></g></g><g clip-path="url(#clippath5)"><g transform="matrix(-0.1237293236 0.1454439011 0.1454439011 0.1237293236 169.1336929528 79.728362238)"><path d="M 0 0 L 600 0 L 600 256 L 0 256 Z" fill="#f5f5f7" fill-opacity="1"/></g></g><g transform="matrix(0.23999999 0 0 -0.23999999 0 383.03998)"><path d="M 0 0 L 1562.5 0 L 1562.5 1562.5 L 0 1562.5 Z" fill="none"/></g><g clip-path="url(#clippath6)"><g transform="matrix(0.23999999 0 0 -0.23999999 0 383.03998)"><path d="M 0 0 L 1562.5 0 L 1562.5 1562.5 L 0 1562.5 Z" fill="none"/></g></g><g clip-path="url(#clippath7)"><g transform="matrix(0.23999999 0 0 -0.23999999 0 383.03998)"><path d="M 704.72375 950.65948 L 394.88489 586.44373 L 550.02502 454.46576 L 859.86389 818.68152 L 704.72375 950.65948 Z" fill="none"/></g></g><g clip-path="url(#clippath8)"><g transform="matrix(0.23999999 0 0 -0.23999999 0 383.03998)"><path d="M 473.13281 678.42419 L 626.93658 859.22064 L 782.29382 884.67053 L 782.07678 727.24268 L 628.27295 546.44623 L 472.91571 520.99634 L 473.13281 678.42419 Z" fill="none"/></g></g><g clip-path="url(#clippath9)"><g transform="matrix(-0.1237293236 0.1454439011 0.1454439011 0.1237293236 169.1336929528 154.8817143066)"><path d="M 0 0 L 600 0 L 600 256 L 0 256 Z" fill="#f5f5f7" fill-opacity="1"/></g></g><g transform="matrix(0.23999999 0 0 -0.23999999 0 383.03998)"><path d="M 0 0 L 1562.5 0 L 1562.5 1562.5 L 0 1562.5 Z" fill="none"/></g><g clip-path="url(#clippath10)"><g transform="matrix(0.23999999 0 0 -0.23999999 0 383.03998)"><path d="M 0 0 L 1562.5 0 L 1562.5 1562.5 L 0 1562.5 Z" fill="none"/></g></g><g clip-path="url(#clippath11)"><g transform="matrix(0.23999999 0 0 -0.23999999 0 383.03998)"><path d="M 1167.11365 430.89151 L 857.73071 793.40527 L 702.79999 661.18152 L 1012.18286 298.66779 L 1167.11365 430.89151 Z" fill="none"/></g></g><g clip-path="url(#clippath12)"><g transform="matrix(0.23999999 0 0 -0.23999999 0 383.03998)"><path d="M 935.97864 701.71973 L 1089.18164 522.20691 L 1089.64832 364.77963 L 934.25085 389.98322 L 781.04791 569.49597 L 780.58124 726.92328 L 935.97864 701.71973 Z" fill="none"/></g></g><g clip-path="url(#clippath13)"><g transform="matrix(-0.12395975 -0.1452475763 -0.1452475763 0.12395975 280.1072643289 279.6260219089)"><path d="M 0 0 L 598 0 L 598 256 L 0 256 Z" fill="#f5f5f7" fill-opacity="1"/></g></g><g transform="matrix(0.23999999 0 0 -0.23999999 0 383.03998)"><path d="M 0 0 L 1562.5 0 L 1562.5 1562.5 L 0 1562.5 Z" fill="none"/></g><g clip-path="url(#clippath14)"><g transform="matrix(0.23999999 0 0 -0.23999999 0 383.03998)"><path d="M 0 0 L 1562.5 0 L 1562.5 1562.5 L 0 1562.5 Z" fill="none"/></g></g><g clip-path="url(#clippath15)"><g transform="matrix(0.23999999 0 0 -0.23999999 0 383.03998)"><path d="M 1165.16455 739.13757 L 861.6499 1106.57849 L 704.61334 976.86273 L 1008.12805 609.42175 L 1165.16455 739.13757 Z" fill="none"/></g></g><g clip-path="url(#clippath16)"><g transform="matrix(0.23999999 0 0 -0.23999999 0 383.03998)"><path d="M 938.57788 1013.44788 L 1088.71069 831.69415 L 1086.64624 674.27966 L 931.67419 701.97833 L 781.54138 883.73212 L 783.60577 1041.14648 L 938.57788 1013.44788 Z" fill="none"/></g></g><g clip-path="url(#clippath17)"><g transform="matrix(-0.1216085469 -0.1472217395 -0.1472217395 0.1216085469 279.6394803484 205.6469698714)"><path d="M 0 0 L 598 0 L 598 256 L 0 256 Z" fill="#f5f5f7" fill-opacity="1"/></g></g><g transform=""><path d="M 168.75462 192.70975 L 280.11409 192.70975 L 280.11409 311.35792 L 168.75462 311.35792 Z" fill="#f5f5f7" fill-opacity="0"/><path d="M 94.88592 154.8754 L 206.37032 154.8754 L 206.37032 273.83192 L 94.88592 273.83192 Z" fill="#f5f5f7" fill-opacity="0"/><path d="M 169.22511 117.595894 L 279.6436 117.595894 L 279.6436 236.775744 L 169.22511 236.775744 Z" fill="#f5f5f7" fill-opacity="0"/><path d="M 94.88592 79.72205 L 206.37032 79.72205 L 206.37032 198.67857 L 94.88592 198.67857 Z" fill="#f5f5f7" fill-opacity="0"/></g></g></svg>