<svg width="167" height="24" viewBox="0 0 167 24" fill="none" xmlns="http://www.w3.org/2000/svg">
<path d="M0 22.928V0.182211H0.030368L11.6918 16.7329L10.3252 16.4596L21.9562 0.182211H22.017V22.928H18.8587V7.37948L19.0409 8.98899L10.9022 20.5593H10.8415L2.52056 8.98899L3.06719 7.50095V22.928H0Z" fill="#0F1377"/>
<path d="M25.9553 22.928L35.6428 0H35.825L45.5125 22.928H41.8379L34.7925 4.98039L37.0701 3.49234L29.1136 22.928H25.9553Z" fill="#0F1377"/>
<path d="M66.0065 20.9844C65.7028 21.2476 65.2776 21.5108 64.731 21.774C64.1844 22.0372 63.5669 22.2801 62.8786 22.5028C62.2105 22.7053 61.5221 22.8673 60.8135 22.9887C60.1049 23.1102 59.4368 23.1709 58.8092 23.1709C56.4607 23.1709 54.4261 22.7053 52.7052 21.774C50.9843 20.8225 49.6481 19.5369 48.6966 17.9172C47.7653 16.2976 47.2997 14.4553 47.2997 12.3902C47.2997 10.5074 47.5932 8.83715 48.1803 7.37948C48.7877 5.9218 49.6178 4.69695 50.6705 3.70492C51.7233 2.71289 52.9178 1.96381 54.254 1.45768C55.6104 0.931293 57.0479 0.668101 58.5663 0.668101C59.8822 0.668101 61.097 0.819942 62.2105 1.12362C63.324 1.42731 64.2957 1.81197 65.1258 2.27762L64.0629 5.22333C63.658 4.98039 63.1519 4.75769 62.5445 4.55523C61.9574 4.33253 61.3399 4.16045 60.692 4.03897C60.0644 3.9175 59.4874 3.85676 58.9611 3.85676C57.2604 3.85676 55.7825 4.19081 54.5273 4.85891C53.2721 5.52701 52.3003 6.47855 51.612 7.71353C50.9236 8.9485 50.5794 10.4163 50.5794 12.1169C50.5794 13.6758 50.9236 15.0525 51.612 16.247C52.3205 17.4212 53.2923 18.3424 54.5273 19.0105C55.7825 19.6786 57.2301 20.0127 58.87 20.0127C59.5988 20.0127 60.3074 19.9418 60.9957 19.8001C61.7043 19.6584 62.3016 19.4458 62.7875 19.1623V15.093H58.5055V12.0258H66.0065V20.9844Z" fill="#0F1377"/>
<path d="M90.6937 23.6872L73.7179 6.74174L74.6593 7.04543L74.72 22.928H71.5314V0.212578H71.6528L88.4161 17.158L87.6872 16.9758L87.6265 0.911047H90.7848V23.6872H90.6937Z" fill="#0F1377"/>
<path d="M94.7583 22.928L104.446 0H104.628L114.315 22.928H110.641L103.595 4.98039L105.873 3.49234L97.9166 22.928H94.7583Z" fill="#0F1377"/>
<path d="M114.97 0.911047H129.638V3.97824H123.807V22.928H120.618V3.97824H114.97V0.911047Z" fill="#0F1377"/>
<path d="M134.255 0.911047H148.68V3.97824H137.413V10.3252H147.465V13.3924H137.413V19.8608H149.105V22.928H134.255V0.911047Z" fill="#0F1377"/>
<path d="M165.603 5.07149C164.834 4.66658 164.004 4.32241 163.113 4.03897C162.222 3.75554 161.362 3.61382 160.532 3.61382C159.378 3.61382 158.467 3.87701 157.798 4.40339C157.13 4.90953 156.796 5.61812 156.796 6.52917C156.796 7.15678 157.019 7.7034 157.464 8.16905C157.91 8.6347 158.487 9.0396 159.195 9.38378C159.904 9.72795 160.653 10.0519 161.443 10.3556C162.354 10.6795 163.234 11.0945 164.085 11.6007C164.935 12.0865 165.633 12.7445 166.18 13.5746C166.727 14.4047 167 15.5182 167 16.9151C167 18.0691 166.706 19.1219 166.119 20.0734C165.532 21.0249 164.692 21.7841 163.599 22.351C162.526 22.8976 161.23 23.1709 159.712 23.1709C158.294 23.1709 156.948 22.9482 155.673 22.5028C154.417 22.0372 153.334 21.4906 152.423 20.863L153.851 18.3424C154.559 18.889 155.43 19.3648 156.462 19.7697C157.495 20.1746 158.477 20.3771 159.408 20.3771C160.096 20.3771 160.764 20.2657 161.412 20.043C162.06 19.8001 162.597 19.4255 163.022 18.9194C163.467 18.4133 163.69 17.7452 163.69 16.9151C163.69 16.2267 163.498 15.6396 163.113 15.1537C162.728 14.6678 162.222 14.2528 161.594 13.9086C160.987 13.5645 160.329 13.2608 159.621 12.9976C158.932 12.7344 158.224 12.451 157.495 12.1473C156.786 11.8234 156.128 11.4286 155.521 10.9629C154.934 10.4973 154.448 9.93041 154.063 9.26231C153.699 8.57396 153.517 7.74389 153.517 6.77211C153.517 5.57763 153.79 4.54511 154.336 3.67455C154.903 2.804 155.683 2.11565 156.675 1.60952C157.667 1.10338 158.801 0.830065 160.076 0.789574C161.534 0.789574 162.809 0.971784 163.902 1.3362C164.996 1.68038 165.957 2.10553 166.787 2.61167L165.603 5.07149Z" fill="#0F1377"/>
</svg>
